{"title":"Tyga ft Lil Wayne - Im On It [KingPinVideos]","uid":5761531,"size":77927939,"categoryP":"video","categoryS":"music_videos","magnet":"?xt=urn:btih:0b5fb761ce5d36bd166c836f8648819181a0151e&amp;dn=Tyga+ft+Lil+Wayne+-+Im+On+It+%5BKingPinVideos%5D&amp;tr=udp%3A%2F%2Ftracker.openbittorrent.com%3A80&amp;tr=udp%3A%2F%2Fopen.demonii.com%3A1337&amp;tr=udp%3A%2F%2Ftracker.coppersurfer.tk%3A6969&amp;tr=udp%3A%2F%2Fexodus.desync.com%3A6969","seeders":0,"leechers":1,"uploader":"KingPinMan","files":4,"time":1281748529,"description":"[img]http://a.imageshack.us/img443/2425/tygaonit.png[/img]\n\n[img]http://a.imageshack.us/img101/4695/tygaonit3.png[/img]\n\n[code]General\nComplete name                    : Tyga ft Lil Wayne - Im On It [KingPinVideos].mpg\nFormat                           : MPEG-PS\nFile size                        : 74.3 MiB\nDuration                         : 3mn 38s\nOverall bit rate                 : 2 857 Kbps\nWriting library                  : encoded by TMPGEnc 4.0 XPress Version. 4.7.4.299\n\nVideo\nID                               : 224 (0xE0)\nFormat                           : MPEG Video\nFormat version                   : Version 1\nFormat settings, BVOP            : Yes\nFormat settings, Matrix          : Default\nDuration                         : 3mn 38s\nBit rate mode                    : Constant\nBit rate                         : 2 615 Kbps\nNominal bit rate                 : 2 700 Kbps\nWidth                            : 384 pixels\nHeight                           : 208 pixels\nDisplay aspect ratio             : 16:9\nFrame rate                       : 29.970 fps\nResolution                       : 8 bits\nScan type                        : Progressive\nBits/(Pixel*Frame)               : 1.092\nStream size                      : 68.0 MiB (92%)\nWriting library                  : TMPGEnc XPress 4.7.4.299\n\nAudio\nID                               : 192 (0xC0)\nFormat                           : MPEG Audio\nFormat version                   : Version 1\nFormat profile                   : Layer 2\nDuration                         : 3mn 38s\nBit rate mode                    : Constant\nBit rate                         : 128 Kbps\nChannel(s)                       : 2 channels\nSampling rate                    : 48.0 KHz\nStream size                      : 3.33 MiB (4%)[/code]","torrent":{"xt":"urn:btih:0b5fb761ce5d36bd166c836f8648819181a0151e","amp;dn":"Tyga+ft+Lil+Wayne+-+Im+On+It+%5BKingPinVideos%5D","amp;tr":["udp%3A%2F%2Ftracker.openbittorrent.com%3A80","udp%3A%2F%2Fopen.demonii.com%3A1337","udp%3A%2F%2Ftracker.coppersurfer.tk%3A6969","udp%3A%2F%2Fexodus.desync.com%3A6969"],"infoHash":"0b5fb761ce5d36bd166c836f8648819181a0151e","infoHashBuffer":{"type":"Buffer","data":[11,95,183,97,206,93,54,189,22,108,131,111,134,72,129,145,129,160,21,30]},"announce":[],"urlList":[]}}